<svg height="200px" width="200px" version="1.1" id="Capa_1" xmlns="http://www.w3.org/2000/svg" xmlns:xlink="http://www.w3.org/1999/xlink" viewBox="0 0 391.592 391.592" xml:space="preserve" fill="#000000"><g id="SVGRepo_bgCarrier" stroke-width="0"></g><g id="SVGRepo_tracerCarrier" stroke-linecap="round" stroke-linejoin="round"></g><g id="SVGRepo_iconCarrier"> <g> <g> <path style="fill:#45474f;" d="M369.645,0H21.941c-6.628,0-12,5.373-12,12v233.197c0,0.146-0.006,0.199,0,0.213 c0.022,3.504,1.578,6.967,4.539,9.316l57.948,46c4.37,3.469,10.553,3.469,14.922,0l50.485-40.076l50.488,40.076 c4.371,3.469,10.554,3.469,14.922,0.002l50.49-40.08l50.494,40.08c4.992,4.164,11.777,2.682,14.921,0l57.954-46 c2.84-2.256,4.399-5.535,4.539-8.893c0.018,0.184,0,0.185,0-0.092V12C381.645,5.373,376.272,0,369.645,0z M357.645,239.533 l-45.953,36.475l-50.494-40.078c-4.369-3.467-10.551-3.467-14.921,0l-50.491,40.078l-50.488-40.078 c-4.369-3.469-10.553-3.469-14.922,0L79.89,276.008l-45.948-36.475V24h323.703V239.533z"></path> <path style="fill:#45474f;" d="M304.947,75.08H86.639c-6.627,0-12,5.372-12,12c0,6.627,5.373,12,12,12h218.309 c6.627,0,12-5.373,12-12C316.947,80.452,311.574,75.08,304.947,75.08z"></path> <path style="fill:#45474f;" d="M304.947,129.404H86.639c-6.627,0-12,5.373-12,12c0,6.628,5.373,12,12,12h218.309 c6.627,0,12-5.372,12-12C316.947,134.777,311.574,129.404,304.947,129.404z"></path> <path style="fill:#45474f;" d="M304.947,183.73H86.639c-6.627,0-12,5.371-12,12c0,6.627,5.373,12,12,12h218.309 c6.627,0,12-5.373,12-12C316.947,189.102,311.574,183.73,304.947,183.73z"></path> </g> <path style="fill:#45474f;" d="M381.645,294.289c-0.109-2.432-0.971-4.855-2.602-6.908c-4.119-5.191-11.668-6.059-16.859-1.939 l-50.493,40.08l-50.493-40.08c-4.369-3.467-10.552-3.467-14.921,0l-50.491,40.078l-50.488-40.076 c-4.369-3.469-10.553-3.469-14.922,0L79.89,325.52l-50.487-40.076c-5.192-4.123-12.74-3.256-16.86,1.938 c-1.63,2.053-2.491,4.475-2.601,6.906c-0.006,0.072,0,85.305,0,85.305c0,6.627,5.372,12,12,12h347.703c6.627,0,12-5.373,12-12 C381.645,379.592,381.651,294.361,381.645,294.289z M33.942,367.592v-47.904l38.487,30.553c4.37,3.469,10.553,3.469,14.922,0 l50.485-40.078l50.489,40.078c4.369,3.469,10.553,3.469,14.921,0l50.49-40.078l50.494,40.078c2.184,1.734,4.822,2.602,7.46,2.602 s5.276-0.867,7.46-2.602l38.494-30.553v47.904H33.942z"></path> </g> </g></svg>